<svg width="92" height="90" viewBox="0 0 92 90" fill="none" xmlns="http://www.w3.org/2000/svg">
<path d="M77.6131 35.7316C71.5302 25.2296 60.6519 18.5573 48.486 17.7677C48.2196 17.7282 47.9532 17.6887 47.6868 17.6887C45.5555 17.7282 43.5575 17.0175 42.0034 15.7147C40.4494 14.4118 39.6058 12.6351 39.5614 10.74C39.517 7.93687 42.0034 5.60748 45.2003 5.52852C47.376 5.48903 49.1964 7.0288 49.2408 9.00286C49.2408 9.59508 49.0188 10.1873 48.5304 10.6216C48.042 11.0559 47.4204 11.2928 46.7544 11.3322C45.0227 11.3717 43.6907 12.6351 43.6907 14.1354C43.6907 15.6357 45.1559 16.8596 46.8432 16.8596C49.1964 16.8201 51.3721 15.9515 52.9705 14.4513C54.569 12.951 55.457 10.9769 55.4126 8.88441C55.2794 3.90979 50.6617 -0.0778096 45.0227 0.00115277C41.8258 0.0801151 38.851 1.22507 36.6309 3.27809C34.4109 5.33111 33.2564 8.01583 33.3008 10.8585C33.3896 13.8196 34.5885 16.6227 36.7641 18.8337C27.4399 21.242 19.4033 27.2432 14.4748 35.6921C6.34936 36.4818 0 42.6013 0 50.0238C0 56.2618 4.52891 61.7102 11.0115 63.6843C13.0539 70.7514 17.3164 77.1473 23.133 81.8061C29.5711 86.9781 37.6965 89.8208 45.9995 89.8208C54.3025 89.8208 62.4279 86.9781 68.8661 81.8061C74.6827 77.1473 78.9452 70.7909 80.9876 63.6843C87.4702 61.7497 91.9991 56.2618 91.9991 50.0238C92.0879 42.6408 85.7385 36.5212 77.6131 35.7316ZM77.8795 58.7886L75.8815 59.1439L75.4375 60.9206C72.1518 74.6995 60.0747 84.2934 46.0883 84.2934C32.102 84.2934 20.0249 74.66 16.7392 60.9206L16.2952 59.1439L14.2972 58.7886C9.67944 57.9595 6.30496 54.2878 6.30496 50.0633C6.30496 45.1676 10.7895 41.18 16.3396 41.18L18.5153 41.2195L19.3589 39.6008C24.5982 29.4936 34.8549 23.2556 46.0883 23.2556C57.3218 23.2556 67.5785 29.5331 72.8178 39.6008L73.6614 41.2195L75.7039 41.18H75.8815C81.3872 41.18 85.8717 45.1676 85.8717 50.0633C85.8717 54.2878 82.4972 57.9595 77.8795 58.7886Z" fill="white"/>
<path d="M59.453 65.7373C57.8546 65.1845 56.0341 65.8557 55.4125 67.277C54.2581 69.8433 49.7736 71.2252 46.0883 71.2252C42.403 71.2252 37.8741 69.8433 36.764 67.277C36.1424 65.8557 34.322 65.1451 32.7235 65.7373C31.1251 66.29 30.3259 67.9087 30.9919 69.3301C32.9455 73.7914 39.0285 76.7525 46.0883 76.7525C53.148 76.7525 59.231 73.7519 61.1846 69.3301C61.8506 67.9087 61.0514 66.29 59.453 65.7373Z" fill="white"/>
</svg>
